<svg width="79" height="79" viewBox="0 0 79 79" fill="none" xmlns="http://www.w3.org/2000/svg">
    <path fill-rule="evenodd" clip-rule="evenodd" d="M13.8968 65.1032C10.8546 62.061 9.98183 57.4204 10.9359 51.3316C5.95582 47.7008 3.29163 43.8023 3.29163 39.5C3.29163 35.1977 5.95582 31.2992 10.9359 27.6684C9.98183 21.5796 10.8546 16.939 13.8968 13.8968C16.939 10.8546 21.5795 9.98187 27.6683 10.9359C31.2992 5.95587 35.1976 3.29167 39.5 3.29167C43.8023 3.29167 47.7008 5.95587 51.3316 10.9359C57.4204 9.98187 62.0609 10.8546 65.1031 13.8968C68.1453 16.939 69.0181 21.5796 68.064 27.6684C73.0441 31.2992 75.7083 35.1977 75.7083 39.5C75.7083 43.8023 73.0441 47.7008 68.064 51.3316C69.0181 57.4204 68.1453 62.061 65.1031 65.1032C62.0609 68.1454 57.4204 69.0181 51.3316 68.0641C47.7008 73.0441 43.8023 75.7083 39.5 75.7083C35.1976 75.7083 31.2992 73.0441 27.6683 68.0641C21.5795 69.0181 16.939 68.1454 13.8968 65.1032ZM28.4814 61.2184C29.8176 60.9322 31.1916 61.5014 31.9341 62.6485C34.8332 67.1279 37.4184 69.125 39.5 69.125C41.5815 69.125 44.1667 67.1279 47.0659 62.6485C47.8083 61.5014 49.1824 60.9322 50.5185 61.2184C55.736 62.3357 58.9761 61.9199 60.448 60.448C61.9199 58.9762 62.3357 55.736 61.2183 50.5186C60.9322 49.1824 61.5013 47.8084 62.6485 47.0659C67.1278 44.1667 69.125 41.5815 69.125 39.5C69.125 37.4185 67.1278 34.8333 62.6485 31.9341C61.5013 31.1916 60.9322 29.8176 61.2183 28.4814C62.3357 23.264 61.9199 20.0238 60.448 18.552C58.9761 17.0801 55.736 16.6643 50.5185 17.7816C49.1824 18.0678 47.8083 17.4987 47.0659 16.3515C44.1667 11.8721 41.5815 9.875 39.5 9.875C37.4184 9.875 34.8332 11.8721 31.9341 16.3515C31.1916 17.4987 29.8176 18.0678 28.4814 17.7816C23.264 16.6643 20.0238 17.0801 18.5519 18.552C17.08 20.0238 16.6642 23.264 17.7816 28.4814C18.0677 29.8176 17.4986 31.1916 16.3514 31.9341C11.8721 34.8333 9.87496 37.4185 9.87496 39.5C9.87496 41.5815 11.8721 44.1667 16.3514 47.0659C17.4986 47.8084 18.0677 49.1824 17.7816 50.5186C16.6642 55.736 17.08 58.9762 18.5519 60.448C20.0238 61.9199 23.264 62.3357 28.4814 61.2184ZM50.339 27.2974L36.2082 41.4282L28.6607 33.8808L24.0056 38.5359L36.2082 50.7385L54.9941 31.9526L50.339 27.2974Z" fill="#1AB700"/>
</svg>
